<?xml version="1.0" encoding="UTF-8"?>
<svg xmlns="http://www.w3.org/2000/svg" xmlns:xlink="http://www.w3.org/1999/xlink" width="395px" height="395px" viewBox="0 0 395 395" version="1.1">
<g id="surface1">
<rect x="0" y="0" width="395" height="395" style="fill:rgb(0.392157%,47.843137%,79.607843%);fill-opacity:1;stroke:none;"/>
<path style=" stroke:none;fill-rule:nonzero;fill:rgb(100%,100%,100%);fill-opacity:1;" d="M 189.660156 146.273438 L 208.609375 146.273438 L 208.609375 178.984375 L 157.382812 178.984375 L 157.382812 324.515625 L 156.023438 324.886719 C 154.171875 325.382812 129.792969 325.382812 124.546875 324.824219 L 120.351562 324.457031 L 120.351562 178.984375 L 69.125 178.984375 L 69.125 146.273438 L 85.355469 146.089844 C 94.246094 145.964844 117.082031 145.964844 136.089844 146.089844 C 155.097656 146.210938 179.167969 146.273438 189.660156 146.273438 Z M 334.269531 309.085938 C 326.738281 317.050781 318.652344 321.492188 305.199219 325.132812 C 299.335938 326.738281 298.347656 326.800781 285.140625 326.738281 C 271.933594 326.675781 270.882812 326.675781 264.464844 325.011719 C 247.863281 320.753906 234.46875 312.421875 225.335938 300.632812 C 222.742188 297.300781 218.484375 290.386719 218.484375 289.523438 C 218.484375 289.277344 219.101562 288.71875 219.902344 288.351562 C 220.707031 287.980469 222.371094 286.929688 223.730469 286.128906 C 225.089844 285.324219 227.558594 283.84375 229.222656 282.980469 C 230.890625 282.117188 235.703125 279.277344 239.902344 276.746094 C 244.097656 274.214844 247.925781 272.179688 248.355469 272.179688 C 248.789062 272.179688 249.589844 273.042969 250.207031 274.09375 C 253.910156 280.328125 262.550781 288.289062 268.660156 291.003906 C 272.425781 292.609375 280.757812 294.398438 284.769531 294.398438 C 288.472656 294.398438 295.261719 292.792969 298.902344 291.128906 C 302.792969 289.335938 304.765625 287.546875 307.113281 283.96875 C 308.71875 281.4375 308.902344 280.757812 308.839844 275.945312 C 308.839844 271.5 308.59375 270.265625 307.359375 268.230469 C 303.902344 262.550781 299.210938 259.589844 280.203125 251.195312 C 260.578125 242.492188 251.75 237.308594 244.589844 230.335938 C 239.285156 225.148438 238.234375 223.730469 234.902344 217.25 C 230.582031 208.917969 230.027344 206.203125 229.964844 193.796875 C 229.902344 185.09375 230.085938 182.253906 231.011719 179.292969 C 232.308594 174.847656 236.507812 166.269531 238.417969 164.109375 C 242.371094 159.480469 243.789062 158.0625 246.566406 155.777344 C 254.960938 148.867188 268.042969 144.296875 280.574219 143.867188 C 281.992188 143.867188 286.683594 144.113281 291.066406 144.421875 C 303.65625 145.472656 312.234375 148.558594 320.503906 155.160156 C 326.738281 160.097656 336.183594 171.703125 335.257812 173.246094 C 334.640625 174.171875 310.011719 190.585938 308.410156 191.082031 C 307.421875 191.390625 306.742188 191.019531 305.382812 189.414062 C 296.992188 179.355469 293.597656 177.195312 285.449219 176.699219 C 279.648438 176.332031 276.5625 177.007812 272.671875 179.601562 C 268.601562 182.316406 266.625 186.453125 266.625 192.191406 C 266.6875 200.585938 269.894531 204.535156 281.746094 210.398438 C 289.398438 214.164062 295.941406 217.25 296.433594 217.25 C 297.175781 217.25 313.039062 225.148438 317.171875 227.617188 C 336.429688 238.914062 344.265625 250.515625 346.304688 270.511719 C 347.785156 285.574219 343.527344 299.335938 334.269531 309.085938 Z M 334.269531 309.085938 "/>
</g>
</svg>
